:SAMPLES-PER-SECOND 24
:FULLY-SPECIFIED
:DEGREES
258
root  -2.94172 41.1812 29.9633 5.91327 -54.1234 -1.39417
RightUpLeg  -4.56526 -9.26593 -9.01618
RightLeg  20.3666 -13.6089 -5.7259
RightFoot  2.7626 -0.970587 7.98646
RightToes  -2.08645e-008 3.77894e-005 6.81332e-007
Spine  -4.54669 2.8103 5.42847
Spine1  8.88092 3.52998 -3.06294
HEad  -34.1597 32.1779 -20.4139
LeftShoulder1  6.28654 -12.1202 -34.2285
LeftArm  7.41596 37.8966 -28.3285
LeftForeArm  169.469 -67.0221 -156.916
LeftHand  -0.688446 -1.39004 11.9431
RightShoulder  3.8164 6.54202 32.1033
RightArm  18.0811 -30.1263 31.6931
RightForeArm  155.577 74.346 143.346
RightHand  -0.466386 9.14484 -4.10734
LeftUpLeg  -11.0117 9.24502 11.9096
LeftLeg  15.6386 0.892634 0.574047
LeftFoot  10.5646 3.51181 -18.3482
LeftToes  1.24767e-006 1.47042e-008 1.32732e-009
259
root  -2.70995 41.7734 30.3475 8.0202 -54.0108 -3.25037
RightUpLeg  -4.99168 -6.66155 -8.21474
RightLeg  19.7458 -10.8989 -4.52849
RightFoot  4.21342 -0.761093 5.76332
RightToes  -2.08645e-008 3.77894e-005 6.81332e-007
Spine  -3.21264 2.89449 6.87157
Spine1  5.78127 3.72281 -4.14688
HEad  -32.1362 32.2268 -18.6922
LeftShoulder1  5.98033 -11.9018 -32.8217
LeftArm  9.29605 39.8913 -25.3244
LeftForeArm  171.677 -64.1142 -159.915
LeftHand  -0.590349 -1.58726 9.9928
RightShoulder  3.96958 6.76711 32.765
RightArm  20.0632 -32.1342 29.6679
RightForeArm  161.215 71.3393 150.172
RightHand  -0.380961 8.96051 -3.46601
LeftUpLeg  -12.8407 11.1886 12.8432
LeftLeg  16.638 -0.948175 0.0103667
LeftFoot  15.084 4.04638 -17.5229
LeftToes  1.24767e-006 1.47042e-008 1.32732e-009
260
root  -2.36952 41.7458 30.5811 7.96729 -52.8443 -4.57239
RightUpLeg  -3.68023 -2.87313 -7.55521
RightLeg  20.1736 -7.1719 -3.13842
RightFoot  0.955895 -0.753076 7.05739
RightToes  -2.08645e-008 3.77894e-005 6.81332e-007
Spine  -0.41897 2.32987 6.61466
Spine1  4.77993 3.0732 -3.49476
HEad  -33.6223 31.0447 -18.9829
LeftShoulder1  5.71037 -11.6683 -31.6387
LeftArm  9.05242 38.4838 -23.7678
LeftForeArm  172.268 -62.1171 -161.563
LeftHand  -0.535384 -1.41975 9.29292
RightShoulder  3.82043 6.64009 31.768
RightArm  21.2216 -30.448 29.1913
RightForeArm  163.564 69.3629 153.404
RightHand  -0.331917 8.91042 -3.08069
LeftUpLeg  -14.1628 6.44516 14.075
LeftLeg  17.8839 3.45409 1.5632
LeftFoot  15.4517 3.04328 -13.121
LeftToes  1.24767e-006 1.47042e-008 1.32732e-009
261
root  -2.09764 41.1314 30.7833 7.30621 -51.8417 -4.57925
RightUpLeg  -2.70057 1.04509 -7.53765
RightLeg  20.0034 -5.41958 -2.3977
RightFoot  -2.03137 -0.799379 9.58329
RightToes  -2.08645e-008 3.77894e-005 6.81332e-007
Spine  1.0017 2.2143 4.32784
Spine1  4.95185 2.61841 -1.6682
HEad  -34.6151 29.1115 -18.3896
LeftShoulder1  5.29193 -11.2551 -29.8323
LeftArm  7.87029 34.9595 -24.1378
LeftForeArm  171.17 -62.1887 -161.399
LeftHand  -0.509609 -1.08004 9.28827
RightShoulder  3.56702 6.37226 30.2079
RightArm  20.6004 -27.887 29.3285
RightForeArm  163.904 68.7391 154.252
RightHand  -0.217773 8.86931 -2.15736
LeftUpLeg  -15.2934 -0.743808 15.1673
LeftLeg  17.7294 6.71063 2.72644
LeftFoot  13.3796 2.36565 -11.0328
LeftToes  1.24767e-006 1.47042e-008 1.32732e-009
262
root  -1.83034 39.863 31.0349 7.4071 -51.94 -4.31372
RightUpLeg  -3.25912 3.68126 -8.32196
RightLeg  21.6564 -5.19641 -2.48561
RightFoot  -8.23072 -0.384608 12.0547
RightToes  -2.08645e-008 3.77894e-005 6.81332e-007
Spine  2.416 2.48104 2.89532
Spine1  3.22728 2.8067 -1.25049
HEad  -33.7899 27.9146 -16.6673
LeftShoulder1  5.05917 -10.9586 -28.9456
LeftArm  6.52482 30.3282 -22.7981
LeftForeArm  168.379 -63.553 -160.047
LeftHand  -0.517642 -0.952851 9.61133
RightShoulder  3.52959 6.32312 30.0058
RightArm  19.4172 -24.8912 28.5542
RightForeArm  161.741 69.781 152.584
RightHand  -0.508798 8.2515 -4.69613
LeftUpLeg  -17.4606 -6.0517 16.451
LeftLeg  21.3547 5.2115 2.57177
LeftFoot  4.48633 2.26891 -16.4247
LeftToes  1.24767e-006 1.47042e-008 1.32732e-009
263
root  -1.38238 38.3694 31.3079 7.70166 -52.4027 -4.9313
RightUpLeg  -4.30529 4.22641 -9.12778
RightLeg  25.5516 -4.62957 -2.63507
RightFoot  -17.1772 0.541775 13.0082
RightToes  -2.08645e-008 3.77894e-005 6.81332e-007
Spine  3.59409 2.45296 4.10252
Spine1  3.90309 3.17781 -2.89019
HEad  -35.1884 27.4671 -16.9253
LeftShoulder1  5.45026 -11.196 -31.0675
LeftArm  3.42334 22.3141 -19.1558
LeftForeArm  164.993 -67.0495 -156.311
LeftHand  -0.616467 -0.668333 11.9281
RightShoulder  3.57057 6.326 30.4198
RightArm  17.0085 -19.3215 29.256
RightForeArm  154.234 73.6368 144.627
RightHand  -0.615268 7.86222 -5.74567
LeftUpLeg  -20.4251 -7.56693 17.0777
LeftLeg  29.4466 3.41818 2.46976
LeftFoot  -7.18522 0.804054 -20.0081
LeftToes  1.24767e-006 1.47042e-008 1.32732e-009
264
root  -0.809563 37.4311 31.6229 7.27899 -52.4814 -5.53967
RightUpLeg  -4.98528 4.71703 -9.68324
RightLeg  29.0401 -5.30027 -3.41952
RightFoot  -22.1208 1.0573 12.7221
RightToes  -2.08645e-008 3.77894e-005 6.81332e-007
Spine  4.43318 2.34663 5.33468
Spine1  7.04771 3.47401 -4.20885
HEad  -38.7147 26.7389 -18.5476
LeftShoulder1  6.2135 -11.922 -34.2639
LeftArm  -1.08796 14.6986 -18.4272
LeftForeArm  161.27 -72.7243 -147.571
LeftHand  -0.715975 -0.228472 14.8735
RightShoulder  3.61717 6.30056 30.9998
RightArm  12.8466 -15.3031 31.166
RightForeArm  141.295 77.655 129.748
RightHand  -0.537634 8.35981 -4.90414
LeftUpLeg  -22.5556 -9.02391 16.1952
LeftLeg  35.7212 5.8354 4.87937
LeftFoot  -13.069 -0.189009 -17.7649
LeftToes  1.24767e-006 1.47042e-008 1.32732e-009
265
root  -0.312587 37.4536 32.1379 6.82123 -53.1543 -5.51166
RightUpLeg  -4.87742 6.61879 -10.511
RightLeg  28.7594 -6.6934 -4.19054
RightFoot  -20.5012 0.98846 14.0287
RightToes  -2.08645e-008 3.77894e-005 6.81332e-007
Spine  4.42604 2.59136 4.76009
Spine1  8.97207 3.57498 -3.50359
HEad  -40.0314 26.9571 -19.3325
LeftShoulder1  6.79394 -12.557 -36.254
LeftArm  -4.94459 15.076 -23.2725
LeftForeArm  158.01 -75.51 -140.918
LeftHand  -0.703313 0.103506 15.5005
RightShoulder  3.80781 6.48091 32.2483
RightArm  9.44053 -16.8677 32.3004
RightForeArm  135.979 78.6279 123.657
RightHand  -0.51248 8.70522 -4.59631
LeftUpLeg  -22.0733 -10.3265 14.4256
LeftLeg  35.8685 8.34042 6.76855
LeftFoot  -13.4178 -0.199749 -15.315
LeftToes  1.24767e-006 1.47042e-008 1.32732e-009
266
root  0.0581426 38.3665 32.8569 8.08167 -55.3979 -5.73245
RightUpLeg  -4.6697 8.73504 -11.7087
RightLeg  23.5461 -7.49987 -3.78161
RightFoot  -13.1625 0.155428 15.3461
RightToes  -2.08645e-008 3.77894e-005 6.81332e-007
Spine  2.51349 2.73534 5.1454
Spine1  9.26277 3.74764 -3.77761
HEad  -37.9455 29.7727 -19.0554
LeftShoulder1  6.76095 -12.4796 -36.2533
LeftArm  -7.35795 22.8389 -30.8099
LeftForeArm  160.072 -73.6703 -145.655
LeftHand  -0.634767 0.355639 14.6801
RightShoulder  3.97253 6.65731 33.2106
RightArm  9.56726 -21.4786 33.9821
RightForeArm  140.256 77.7869 128.947
RightHand  -0.410544 8.4851 -3.80851
LeftUpLeg  -19.3346 -6.76612 12.9879
LeftLeg  29.9828 7.64044 5.08821
LeftFoot  -10.1855 0.205917 -14.3337
LeftToes  1.24767e-006 1.47042e-008 1.32732e-009
267
root  0.354248 39.6611 33.519 10.9318 -58.0599 -6.2659
RightUpLeg  -5.45533 7.25846 -12.5495
RightLeg  16.5953 -7.0845 -3.21806
RightFoot  -3.18037 -0.936596 12.91
RightToes  -2.08645e-008 3.77894e-005 6.81332e-007
Spine  0.0195971 3.00153 6.07789
Spine1  7.85196 4.10828 -4.75107
HEad  -34.3066 33.301 -18.0526
LeftShoulder1  6.65687 -12.2831 -36.1247
LeftArm  -7.58978 31.5444 -35.502
LeftForeArm  162.733 -70.6233 -151.522
LeftHand  -0.617499 -0.0598515 13.2346
RightShoulder  4.09646 6.77218 33.9763
RightArm  11.5714 -26.9485 34.7376
RightForeArm  147.059 76.3699 136
RightHand  -0.356502 9.00893 -3.26976
LeftUpLeg  -16.6708 2.011 11.9779
LeftLeg  21.0097 2.2882 1.34779
LeftFoot  -4.09043 1.0082 -15.282
LeftToes  1.24767e-006 1.47042e-008 1.32732e-009
268
root  0.710822 40.6046 33.9338 13.2415 -58.949 -6.85614
RightUpLeg  -6.58821 0.857161 -11.9132
RightLeg  13.9937 -2.68071 -2.93675
RightFoot  2.15619 -1.26556 10.6716
RightToes  -2.08645e-008 3.77894e-005 6.81332e-007
Spine  -1.28372 2.9747 6.70014
Spine1  6.58471 4.04283 -5.13437
HEad  -32.5874 35.0258 -17.0788
LeftShoulder1  6.56892 -12.2176 -35.7497
LeftArm  -5.57292 36.7587 -36.504
LeftForeArm  166.397 -68.3958 -154.992
LeftHand  -0.536037 -0.698339 10.3299
RightShoulder  4.24522 6.94356 34.734
RightArm  12.9432 -31.1147 33.7733
RightForeArm  154.686 74.5282 142.72
RightHand  -0.141839 9.63081 -1.49097
LeftUpLeg  -15.4854 7.25194 11.8081
LeftLeg  14.7991 -5.43426 -1.31702
LeftFoot  0.298076 2.01403 -19.6019
LeftToes  1.24767e-006 1.47042e-008 1.32732e-009
269
root  1.24958 40.869 34.1257 13.5771 -57.9545 -7.60867
RightUpLeg  -6.69142 1.43097 -11.2359
RightLeg  17.8762 -1.78401 -1.20368
RightFoot  1.0439 -1.49385 13.8157
RightToes  -2.08645e-008 3.77894e-005 6.81332e-007
Spine  0.48383 2.36872 6.79037
Spine1  5.56117 3.35294 -4.59701
HEad  -33.1018 34.8118 -16.767
LeftShoulder1  6.50726 -12.2789 -35.2091
LeftArm  -1.4691 37.6839 -35.024
LeftForeArm  169.75 -67.274 -156.679
LeftHand  -0.458013 -1.45752 7.9356
RightShoulder  4.26691 7.00951 34.6914
RightArm  13.9801 -32.4997 31.7494
RightForeArm  158.778 72.8924 147.013
RightHand  -0.172386 9.15774 -1.7663
LeftUpLeg  -15.708 1.22012 13.675
LeftLeg  15.7823 -6.8838 -1.85275
LeftFoot  0.0924849 2.19904 -21.8024
LeftToes  1.24767e-006 1.47042e-008 1.32732e-009
270
root  1.84281 40.4776 34.2605 12.8625 -57.5767 -8.24094
RightUpLeg  -6.32822 2.07746 -10.1789
RightLeg  23.5237 0.433519 -0.0133761
RightFoot  -1.61254 -1.43679 16.6439
RightToes  -2.08645e-008 3.77894e-005 6.81332e-007
Spine  2.74353 2.12017 6.08961
Spine1  5.5548 3.00342 -3.56062
HEad  -33.7685 33.9855 -16.3438
LeftShoulder1  6.23138 -12.1057 -33.9157
LeftArm  3.42501 35.6959 -33.3486
LeftForeArm  171.104 -67.0991 -157.023
LeftHand  -0.402568 -2.15393 6.3942
RightShoulder  3.99017 6.78267 32.9048
RightArm  14.9541 -31.6871 30.341
RightForeArm  157.802 72.4252 147.752
RightHand  -0.296763 8.55293 -2.84909
LeftUpLeg  -16.1279 -6.51475 15.5351
LeftLeg  20.8951 -4.22772 -1.45467
LeftFoot  -2.45332 1.47086 -18.597
LeftToes  1.24767e-006 1.47042e-008 1.32732e-009
271
root  2.31498 39.6221 34.4573 11.4958 -58.8833 -7.45963
RightUpLeg  -6.0748 3.87745 -10.2642
RightLeg  26.6173 -1.26613 -0.913785
RightFoot  -6.05297 -0.774752 15.6805
RightToes  -2.08645e-008 3.77894e-005 6.81332e-007
Spine  3.89353 2.40615 4.42167
Spine1  5.32443 3.21215 -2.96451
HEad  -33.2649 33.8795 -14.961
LeftShoulder1  5.85883 -11.723 -32.4845
LeftArm  8.03454 32.6524 -30.6897
LeftForeArm  169.073 -67.3038 -156.588
LeftHand  -0.312125 -2.38345 4.87606
RightShoulder  3.79174 6.59723 31.6496
RightArm  15.9159 -29.6182 28.2068
RightForeArm  154.412 73.3473 145.386
RightHand  -0.170992 8.32223 -1.82791
LeftUpLeg  -15.593 -8.72208 15.0875
LeftLeg  24.3574 -2.79039 -1.05362
LeftFoot  -7.5312 0.565177 -15.6628
LeftToes  1.24767e-006 1.47042e-008 1.32732e-009
272
root  2.76641 38.6101 34.6596 8.81323 -60.1964 -4.74332
RightUpLeg  -4.81527 5.16054 -12.0579
RightLeg  25.4693 -4.0161 -2.30443
RightFoot  -13.336 0.178931 14.947
RightToes  -2.08645e-008 3.77894e-005 6.81332e-007
Spine  3.90295 2.62789 2.33861
Spine1  6.35639 3.42667 -3.09109
HEad  -33.7652 33.8588 -14.7047
LeftShoulder1  6.07184 -11.8571 -33.5277
LeftArm  12.0716 26.1413 -25.6227
LeftForeArm  162.578 -70.3886 -151.841
LeftHand  -0.382068 -2.89297 5.55697
RightShoulder  3.80115 6.5723 31.8363
RightArm  15.0164 -25.8738 26.7075
RightForeArm  144.962 76.8316 133.762
RightHand  -0.254765 8.43873 -2.51432
LeftUpLeg  -16.0756 -8.15316 12.5475
LeftLeg  27.3058 -1.86634 -0.705966
LeftFoot  -14.4572 -0.295221 -14.1214
LeftToes  1.24767e-006 1.47042e-008 1.32732e-009
